<svg width="70" height="53" viewBox="0 0 70 53" fill="none" xmlns="http://www.w3.org/2000/svg">
<path d="M37.6859 33.1278C38.7648 33.1278 39.6394 32.2532 39.6394 31.1743C39.6394 30.0954 38.7648 29.2208 37.6859 29.2208C36.607 29.2208 35.7324 30.0954 35.7324 31.1743C35.7324 32.2532 36.607 33.1278 37.6859 33.1278Z" fill="#09081F" fill-opacity="0.3"/>
<path d="M60.6396 46.0697H26.4536C25.9652 46.0697 25.6396 45.7441 25.6396 45.2557V23.9302C25.6396 23.4418 25.9652 23.1162 26.4536 23.1162H60.6396C61.128 23.1162 61.4536 23.4418 61.4536 23.9302V45.2557C61.4536 45.7441 61.128 46.0697 60.6396 46.0697ZM27.2676 44.4418H59.8257V24.7441H27.2676V44.4418Z" fill="#09081F" fill-opacity="0.3"/>
<path d="M31.8257 46.0698C31.5815 46.0698 31.4187 45.9884 31.2559 45.8256C30.9303 45.5 30.9303 45.0116 31.2559 44.686L37.442 38.5C37.6047 38.3372 37.7675 38.2558 38.0117 38.2558C38.2559 38.2558 38.4187 38.3372 38.5815 38.5L44.6047 44.5232C44.9303 44.8488 44.9303 45.3372 44.6047 45.6628C44.2792 45.9884 43.7908 45.9884 43.4652 45.6628L38.0117 40.2093L32.3954 45.8256C32.2326 45.9884 32.0699 46.0698 31.8257 46.0698Z" fill="#09081F" fill-opacity="0.3"/>
<path d="M55.3487 46.0696C55.1046 46.0696 54.9418 45.9882 54.779 45.8254L45.4185 36.3835L40.372 41.4301C40.0464 41.7556 39.558 41.7556 39.2325 41.4301C38.9069 41.1045 38.9069 40.6161 39.2325 40.2905L44.8487 34.6742C45.1743 34.3487 45.6627 34.3487 45.9883 34.6742L55.9999 44.6859C56.3255 45.0115 56.3255 45.4998 55.9999 45.8254C55.7557 45.9882 55.5929 46.0696 55.3487 46.0696Z" fill="#09081F" fill-opacity="0.3"/>
<path d="M51.2792 13.1862H26.4536C25.9652 13.1862 25.6396 12.8606 25.6396 12.3722C25.6396 11.8839 25.9652 11.5583 26.4536 11.5583H51.2792C51.7676 11.5583 52.0931 11.8839 52.0931 12.3722C52.0931 12.8606 51.6862 13.1862 51.2792 13.1862Z" fill="#09081F" fill-opacity="0.3"/>
<path d="M44.8489 19.1279H26.4536C25.9652 19.1279 25.6396 18.8023 25.6396 18.314C25.6396 17.8256 25.9652 17.5 26.4536 17.5H44.8489C45.3373 17.5 45.6629 17.8256 45.6629 18.314C45.6629 18.8023 45.2559 19.1279 44.8489 19.1279Z" fill="#09081F" fill-opacity="0.3"/>
<path d="M57.221 16.1976H26.4536C25.9652 16.1976 25.6396 15.872 25.6396 15.3837C25.6396 14.8953 25.9652 14.5697 26.4536 14.5697H57.221C57.7094 14.5697 58.035 14.8953 58.035 15.3837C58.035 15.872 57.7094 16.1976 57.221 16.1976Z" fill="#09081F" fill-opacity="0.3"/>
<path d="M67.5581 52.907H2.44186C1.05814 52.907 0 51.8488 0 50.4651V2.44186C0 1.05814 1.05814 0 2.44186 0H67.5581C68.9419 0 70 1.05814 70 2.44186V50.4651C70 51.8488 68.9419 52.907 67.5581 52.907ZM2.44186 1.62791C1.95349 1.62791 1.62791 1.95349 1.62791 2.44186V50.4651C1.62791 50.9535 1.95349 51.2791 2.44186 51.2791H67.5581C68.0465 51.2791 68.3721 50.9535 68.3721 50.4651V2.44186C68.3721 1.95349 68.0465 1.62791 67.5581 1.62791H2.44186Z" fill="#09081F" fill-opacity="0.3"/>
<path d="M69.1863 8.05808H1.22118C0.732808 8.05808 0.407227 7.7325 0.407227 7.24413C0.407227 6.75576 0.732808 6.43018 1.22118 6.43018H69.1863C69.6747 6.43018 70.0003 6.75576 70.0003 7.24413C70.0003 7.7325 69.6747 8.05808 69.1863 8.05808Z" fill="#09081F" fill-opacity="0.3"/>
<path d="M4.63919 4.9651C5.22359 4.9651 5.69733 4.49135 5.69733 3.90695C5.69733 3.32256 5.22359 2.84882 4.63919 2.84882C4.0548 2.84882 3.58105 3.32256 3.58105 3.90695C3.58105 4.49135 4.0548 4.9651 4.63919 4.9651Z" fill="#09081F" fill-opacity="0.3"/>
<path d="M8.46537 4.9651C9.04976 4.9651 9.52351 4.49135 9.52351 3.90695C9.52351 3.32256 9.04976 2.84882 8.46537 2.84882C7.88097 2.84882 7.40723 3.32256 7.40723 3.90695C7.40723 4.49135 7.88097 4.9651 8.46537 4.9651Z" fill="#09081F" fill-opacity="0.3"/>
<path d="M12.2906 4.9651C12.875 4.9651 13.3487 4.49135 13.3487 3.90695C13.3487 3.32256 12.875 2.84882 12.2906 2.84882C11.7062 2.84882 11.2324 3.32256 11.2324 3.90695C11.2324 4.49135 11.7062 4.9651 12.2906 4.9651Z" fill="#09081F" fill-opacity="0.3"/>
<path d="M11.8841 24.2557H4.2329C3.74453 24.2557 3.41895 23.9301 3.41895 23.4417C3.41895 22.9533 3.74453 22.6277 4.2329 22.6277H11.8841C12.3724 22.6277 12.698 22.9533 12.698 23.4417C12.698 23.9301 12.3724 24.2557 11.8841 24.2557Z" fill="#09081F" fill-opacity="0.3"/>
<path d="M14.8957 28.0814H4.2329C3.74453 28.0814 3.41895 27.7558 3.41895 27.2674C3.41895 26.7791 3.74453 26.4535 4.2329 26.4535H14.8957C15.3841 26.4535 15.7096 26.7791 15.7096 27.2674C15.7096 27.7558 15.3841 28.0814 14.8957 28.0814Z" fill="#09081F" fill-opacity="0.3"/>
<path d="M12.7794 31.9882H4.2329C3.74453 31.9882 3.41895 31.6626 3.41895 31.1742C3.41895 30.6859 3.74453 30.3603 4.2329 30.3603H12.7794C13.2678 30.3603 13.5934 30.6859 13.5934 31.1742C13.5934 31.6626 13.2678 31.9882 12.7794 31.9882Z" fill="#09081F" fill-opacity="0.3"/>
<path d="M10.6631 35.8139H4.2329C3.74453 35.8139 3.41895 35.4884 3.41895 35C3.41895 34.5116 3.74453 34.186 4.2329 34.186H10.6631C11.1515 34.186 11.4771 34.5116 11.4771 35C11.4771 35.4884 11.0701 35.8139 10.6631 35.8139Z" fill="#09081F" fill-opacity="0.3"/>
<path d="M12.7794 39.6397H4.2329C3.74453 39.6397 3.41895 39.3141 3.41895 38.8257C3.41895 38.3374 3.74453 38.0118 4.2329 38.0118H12.7794C13.2678 38.0118 13.5934 38.3374 13.5934 38.8257C13.5934 39.3141 13.2678 39.6397 12.7794 39.6397Z" fill="#09081F" fill-opacity="0.3"/>
<path d="M7.24453 18.8025C5.12825 18.8025 3.41895 17.0932 3.41895 14.9769C3.41895 12.8606 5.12825 11.1513 7.24453 11.1513C9.36081 11.1513 11.0701 12.8606 11.0701 14.9769C10.9887 17.0932 9.36081 18.8025 7.24453 18.8025ZM7.24453 12.8606C6.0236 12.8606 5.04685 13.8374 5.04685 15.0583C5.04685 16.2792 6.0236 17.256 7.24453 17.256C8.46546 17.256 9.4422 16.2792 9.4422 15.0583C9.4422 13.8374 8.46546 12.8606 7.24453 12.8606Z" fill="#09081F" fill-opacity="0.3"/>
<path d="M17.5005 52.4999C17.0121 52.4999 16.6865 52.1744 16.6865 51.686V7.24413C16.6865 6.75576 17.0121 6.43018 17.5005 6.43018C17.9888 6.43018 18.3144 6.75576 18.3144 7.24413V51.686C18.3144 52.093 17.9075 52.4999 17.5005 52.4999Z" fill="#09081F" fill-opacity="0.3"/>
</svg>
