<svg width="70" height="89" viewBox="0 0 70 89" fill="none" xmlns="http://www.w3.org/2000/svg">
<path d="M68.9587 22.4295C64.0274 22.4295 59.0962 22.4295 54.165 22.4295C53.4514 22.4295 52.7377 22.4295 52.0241 22.4295C50.2935 22.4295 48.8002 21.4762 48.0054 19.9429C47.57 19.1032 47.5689 18.197 47.5689 17.2597C47.5689 16.1332 47.5689 15.0067 47.5689 13.8802C47.5689 9.60003 47.5689 5.31993 47.5689 1.03973C46.9772 1.28483 46.3855 1.52992 45.7938 1.77502C48.5968 4.57791 51.3996 7.38081 54.2026 10.1838C58.3114 14.2928 62.4204 18.4018 66.5295 22.5107C67.0942 23.0754 67.6587 23.6401 68.2234 24.2047C69.1725 25.1537 70.6429 23.6832 69.6939 22.7342C66.891 19.9313 64.0882 17.1284 61.2852 14.3254C57.1763 10.2164 53.0673 6.1074 48.9582 1.99842C48.3936 1.43376 47.829 0.869105 47.2643 0.304446C46.6227 -0.337158 45.4893 0.132731 45.4893 1.03973C45.4893 5.97094 45.4893 10.9021 45.4893 15.8333C45.4893 16.5469 45.4893 17.2606 45.4893 17.9742C45.4893 20.0574 46.4704 21.991 48.1315 23.2389C50.185 24.7817 52.7182 24.5092 55.1267 24.5092C59.7374 24.5092 64.348 24.5092 68.9588 24.5092C70.2997 24.5091 70.2997 22.4295 68.9587 22.4295Z" fill="#09081F" fill-opacity="0.3"/>
<path d="M67.9179 23.4694C67.9179 26.0668 67.9179 28.6642 67.9179 31.2616C67.9179 37.1422 67.9179 43.0228 67.9179 48.9034C67.9179 55.1998 67.9179 61.4962 67.9179 67.7925C67.9179 71.6373 67.9179 75.4819 67.9179 79.3267C67.9179 79.5688 67.9179 79.811 67.9179 80.053C67.9179 81.8008 67.1809 83.4052 65.9025 84.5947C64.7993 85.6213 63.2907 86.1551 61.7898 86.1551C61.4977 86.1551 61.2058 86.1551 60.9137 86.1551C56.8146 86.1551 52.7156 86.1551 48.6164 86.1551C42.2246 86.1551 35.8326 86.1551 29.4407 86.1551C23.9516 86.1551 18.4624 86.1551 12.9732 86.1551C11.5658 86.1551 10.1584 86.1551 8.75103 86.1551C8.55634 86.1551 8.36175 86.1551 8.16706 86.1551C6.13649 86.1551 4.21454 85.119 3.09245 83.4338C2.40401 82.3998 2.07959 81.2199 2.07959 79.9887C2.07959 79.7232 2.07959 79.4577 2.07959 79.1922C2.07959 77.8995 2.07959 76.6069 2.07959 75.3142C2.07959 70.4592 2.07959 65.6041 2.07959 60.749C2.07959 54.3482 2.07959 47.9475 2.07959 41.5467C2.07959 35.377 2.07959 29.2072 2.07959 23.0373C2.07959 18.8752 2.07959 14.713 2.07959 10.5509C2.07959 9.77785 2.07959 9.00484 2.07959 8.23182C2.07959 4.88388 4.79574 2.07959 8.16835 2.07959C11.7198 2.07959 15.2712 2.07959 18.8225 2.07959C25.1449 2.07959 31.4672 2.07959 37.7896 2.07959C40.7024 2.07959 43.6151 2.07959 46.5279 2.07959C46.2828 1.97809 46.0378 1.87659 45.7927 1.77508C48.5957 4.57798 51.3984 7.38087 54.2014 10.1839C58.3103 14.2929 62.4193 18.4018 66.5284 22.5108C67.093 23.0755 67.6576 23.6401 68.2223 24.2048C69.1713 25.1538 70.6418 23.6833 69.6928 22.7342C66.8898 19.9313 64.087 17.1284 61.284 14.3254C57.1752 10.2165 53.0662 6.10747 48.9571 1.99849C48.4816 1.52305 48.0061 1.04752 47.5307 0.571987C47.219 0.260246 46.9343 0 46.4426 0C45.1496 0 43.8567 0 42.5637 0C36.6697 0 30.7758 0 24.8818 0C19.7662 0 14.6506 0 9.53504 0C9.10753 0 8.67993 0 8.25232 0C6.61618 0 5.00895 0.45959 3.64414 1.36808C1.23251 2.97342 0 5.6454 0 8.49385C0 11.4273 0 14.3607 0 17.2941C0 22.9103 0 28.5265 0 34.1427C0 40.665 0 47.1873 0 53.7095C0 59.3611 0 65.013 0 70.6646C0 73.6691 0 76.6736 0 79.6782C0 82.3166 0.99157 84.8281 3.11939 86.4779C4.57966 87.6102 6.34811 88.2347 8.20172 88.2347C8.48643 88.2347 8.77103 88.2347 9.05574 88.2347C13.1353 88.2347 17.2149 88.2347 21.2944 88.2347C27.6829 88.2347 34.0713 88.2347 40.4597 88.2347C45.9613 88.2347 51.4629 88.2347 56.9645 88.2347C58.3842 88.2347 59.8038 88.2347 61.2234 88.2347C61.4258 88.2347 61.628 88.2347 61.8302 88.2347C64.1373 88.2347 66.3745 87.2296 67.9142 85.5143C69.2523 84.0236 69.9975 82.0547 69.9975 80.053C69.9975 79.811 69.9975 79.5688 69.9975 79.3267C69.9975 77.89 69.9975 76.4533 69.9975 75.0167C69.9975 69.5878 69.9975 64.1587 69.9975 58.7297C69.9975 52.2828 69.9975 45.8359 69.9975 39.389C69.9975 34.7916 69.9975 30.1941 69.9975 25.5967C69.9975 24.8876 69.9975 24.1785 69.9975 23.4695C69.9975 22.1283 67.9179 22.1283 67.9179 23.4694Z" fill="#09081F" fill-opacity="0.3"/>
<path d="M11.3632 48.5538C14.3572 48.5538 17.3513 48.5538 20.3454 48.5538C26.5917 48.5538 32.838 48.5538 39.0843 48.5538C44.479 48.5538 49.8738 48.5538 55.2686 48.5538C56.3904 48.5538 57.5121 48.5538 58.6338 48.5538C59.9749 48.5538 59.9749 46.4742 58.6338 46.4742C55.6398 46.4742 52.6457 46.4742 49.6517 46.4742C43.4055 46.4742 37.1592 46.4742 30.9129 46.4742C25.5181 46.4742 20.1233 46.4742 14.7286 46.4742C13.6068 46.4742 12.485 46.4742 11.3633 46.4742C10.0221 46.4742 10.0221 48.5538 11.3632 48.5538Z" fill="#09081F" fill-opacity="0.3"/>
<path d="M11.3632 61.9867C14.3572 61.9867 17.3513 61.9867 20.3454 61.9867C26.5917 61.9867 32.838 61.9867 39.0843 61.9867C44.479 61.9867 49.8738 61.9867 55.2686 61.9867C56.3904 61.9867 57.5121 61.9867 58.6338 61.9867C59.9749 61.9867 59.9749 59.9071 58.6338 59.9071C55.6398 59.9071 52.6457 59.9071 49.6517 59.9071C43.4055 59.9071 37.1592 59.9071 30.9129 59.9071C25.5181 59.9071 20.1233 59.9071 14.7286 59.9071C13.6068 59.9071 12.485 59.9071 11.3633 59.9071C10.0221 59.9071 10.0221 61.9867 11.3632 61.9867Z" fill="#09081F" fill-opacity="0.3"/>
<path d="M11.3632 75.4196C15.1011 75.4196 18.8389 75.4196 22.5768 75.4196C28.7264 75.4196 34.876 75.4196 41.0255 75.4196C42.7191 75.4196 44.4126 75.4196 46.1062 75.4196C47.4472 75.4196 47.4472 73.34 46.1062 73.34C42.3684 73.34 38.6304 73.34 34.8926 73.34C28.7429 73.34 22.5934 73.34 16.4438 73.34C14.7504 73.34 13.0568 73.34 11.3633 73.34C10.0221 73.34 10.0221 75.4196 11.3632 75.4196Z" fill="#09081F" fill-opacity="0.3"/>
<path d="M24.3996 18.3132C24.3736 20.2455 22.9304 22.0043 20.9865 22.2415C18.944 22.4906 17.1046 21.2015 16.5925 19.2378C16.1011 17.3538 17.2152 15.2954 19.0155 14.6162C20.9482 13.8869 23.0268 14.7523 23.9838 16.5414C24.2693 17.0752 24.3914 17.7037 24.3996 18.3132C24.4178 19.6532 26.4974 19.655 26.4792 18.3132C26.4459 15.8361 24.9575 13.6409 22.6637 12.706C20.4066 11.786 17.7709 12.4053 16.0837 14.1359C14.3175 15.9476 13.9976 18.6351 14.9916 20.902C15.9538 23.0968 18.366 24.4382 20.7163 24.3431C23.927 24.2129 26.4366 21.4845 26.4793 18.3133C26.4975 16.9715 24.4178 16.9733 24.3996 18.3132Z" fill="#09081F" fill-opacity="0.3"/>
<path d="M26.0427 24.1179C27.6654 25.1676 28.4029 26.876 28.4029 28.7607C28.4029 30.0186 28.4029 31.2764 28.4029 32.5342C28.4029 33.5045 27.4701 33.4387 26.7137 33.4387C25.4769 33.4387 24.2401 33.4387 23.0034 33.4387C20.1103 33.4387 17.2172 33.4387 14.324 33.4387C13.6036 33.4387 12.5818 33.5713 12.4879 32.6843C12.4368 32.2017 12.483 31.6928 12.483 31.2087C12.483 30.4551 12.483 29.7014 12.483 28.9477C12.483 28.2013 12.5252 27.5006 12.7533 26.7786C13.0933 25.7024 13.8612 24.7653 14.7955 24.1483C15.9091 23.413 14.8687 21.6113 13.7459 22.3526C11.6757 23.7195 10.4033 25.981 10.4033 28.4756C10.4033 29.7565 10.4033 31.0374 10.4033 32.3182C10.4033 34.1141 11.6636 35.5183 13.5024 35.5183C14.4095 35.5183 15.3166 35.5183 16.2236 35.5183C19.268 35.5183 22.3125 35.5183 25.3569 35.5183C26.072 35.5183 26.787 35.5183 27.5021 35.5183C28.7436 35.5183 29.8222 34.7416 30.2803 33.6048C30.5218 33.0052 30.4823 32.362 30.4823 31.7298C30.4823 30.5785 30.4945 29.4265 30.4804 28.2753C30.4509 25.8466 29.108 23.6262 27.092 22.3222C25.9625 21.5915 24.9212 23.3925 26.0427 24.1179Z" fill="#09081F" fill-opacity="0.3"/>
</svg>
