<svg width="70" height="67" viewBox="0 0 70 67" fill="none" xmlns="http://www.w3.org/2000/svg">
<path d="M66.7478 5.8856H44.8352V2.612C44.8352 1.14757 43.8149 0 42.5122 0H27.4897C26.1869 0 25.1667 1.14664 25.1667 2.612V5.8856H3.25223C1.45886 5.8856 0 7.34446 0 9.13783V51.4168C0 53.2101 1.45886 54.669 3.25223 54.669H66.7478C68.5411 54.669 70 53.2101 70 51.4168V9.13783C70 7.34446 68.5411 5.8856 66.7478 5.8856ZM27.9599 2.78762H42.0476L42.042 5.88467H27.9543L27.9599 2.78762ZM67.2124 51.4168C67.2124 51.6723 67.0033 51.8814 66.7478 51.8814H3.25223C2.99577 51.8814 2.78762 51.6723 2.78762 51.4168V9.13783C2.78762 8.88137 2.99577 8.67322 3.25223 8.67322H27.4887H42.5112H66.7468C67.0024 8.67322 67.2114 8.88137 67.2114 9.13783L67.2124 51.4168Z" fill="#09081F" fill-opacity="0.3"/>
<path d="M66.9035 59.1608V56.3731H3.09757V59.1608H7.4825L2.41553 64.2277L4.38638 66.1986L11.4242 59.1608H58.5768L65.6147 66.1986L67.5855 64.2277L62.5185 59.1608H66.9035Z" fill="#09081F" fill-opacity="0.3"/>
<path d="M35.3138 28.4747V29.9428H37.2279L29.2191 37.9517L24.1735 32.9061L23.1346 31.8672L12.2099 42.7928C11.4266 42.4332 10.4723 42.5689 9.82745 43.2138C8.9986 44.0426 8.9986 45.3853 9.82745 46.2142C10.6563 47.044 11.999 47.044 12.8279 46.2142C13.4727 45.5693 13.6084 44.615 13.2488 43.8308L23.1356 33.9449L28.1812 38.9896L29.2191 40.0275L38.2649 30.9817V32.894H39.7321V29.9437V28.4765H38.2649H35.3138V28.4747Z" fill="#09081F" fill-opacity="0.3"/>
<path d="M51.2617 15.4445H47.4287V17.3029H51.2617V15.4445Z" fill="#09081F" fill-opacity="0.3"/>
<path d="M57.9984 19.8582H47.4287V21.7166H57.9984V19.8582Z" fill="#09081F" fill-opacity="0.3"/>
<path d="M53.7009 24.2719H47.4287V26.1303H53.7009V24.2719Z" fill="#09081F" fill-opacity="0.3"/>
<path d="M60.9022 28.6857H47.4287V30.5441H60.9022V28.6857Z" fill="#09081F" fill-opacity="0.3"/>
</svg>
