<svg width="70" height="63" viewBox="0 0 70 63" fill="none" xmlns="http://www.w3.org/2000/svg">
<path d="M69.9625 13.9392C69.9625 11.9071 68.3091 10.2541 66.277 10.2541H46.5999V5.11812C46.5999 2.29594 44.3036 0 41.4814 0H28.5186C25.6964 0 23.4001 2.29594 23.4001 5.11812V10.2541H3.72297C1.69086 10.2541 0.0374916 11.9071 0.0374916 13.9361L2.6282e-06 31.8306C-0.00104843 32.3817 0.313228 32.8845 0.808994 33.1248C1.62096 33.5187 2.45702 33.8836 3.29728 34.2435V58.6419C3.29728 60.6736 4.9503 62.3263 6.98241 62.3263H63.0172C65.0493 62.3263 66.7027 60.6736 66.7027 58.6419V33.8787C67.5625 33.4824 68.4092 33.0714 69.2341 32.6364C69.706 32.3877 70.001 31.8975 70 31.3639L69.9625 13.9392ZM26.2703 5.11812C26.2703 3.87853 27.279 2.87018 28.5186 2.87018H41.4814C42.7 2.87018 43.7297 3.89955 43.7297 5.11812V10.2541H26.2703V5.11812ZM63.8325 58.6419C63.8325 59.0756 63.4517 59.4561 63.0172 59.4561H6.98241C6.5406 59.4561 6.16747 59.0833 6.16747 58.6419V35.3813C12.7881 37.8262 20.1925 39.2913 28.2755 39.7334V41.9022C28.2755 43.3814 29.4786 44.5846 30.9578 44.5846H39.0422C40.5214 44.5846 41.7245 43.3814 41.7245 41.9022V39.7091C49.9126 39.2182 57.3196 37.6733 63.8325 35.1034V58.6419ZM31.1456 41.7144V36.5441H38.8544V41.7144H31.1456ZM41.7245 36.8234V36.3566C41.7245 34.8774 40.5214 33.6739 39.0422 33.6739H30.9578C29.4786 33.6739 28.2755 34.8774 28.2755 36.3566V36.8571C18.7416 36.3191 10.1985 34.3322 2.87194 30.9274L2.90768 13.9392C2.90768 13.4974 3.28116 13.1243 3.72297 13.1243H66.277C66.7188 13.1243 67.0923 13.4974 67.0923 13.9424L67.1281 30.4936C59.9777 34.1044 51.4332 36.2219 41.7245 36.8234Z" fill="#09081F" fill-opacity="0.3"/>
</svg>
